<svg xmlns="http://www.w3.org/2000/svg" viewBox="0 0 720 420" role="img" aria-label="Particle track building research visual"><rect width="720" height="420" fill="#f6f7f8"/><g transform="translate(360 210)" fill="none"><circle r="58" stroke="#d5dbe1" stroke-width="2"/><circle r="104" stroke="#d5dbe1" stroke-width="2"/><circle r="150" stroke="#d5dbe1" stroke-width="2"/><circle r="190" stroke="#d5dbe1" stroke-width="2"/><circle r="8" fill="#111827" stroke="none"/><g stroke="#285e8e" stroke-width="4" stroke-linecap="round"><path d="M-2-3C18-40 52-70 105-82 153-93 190-74 220-40"/><path d="M2 1C-21 34-38 72-35 117-31 158-5 188 34 211"/><path d="M0 3C30 20 64 26 102 16 142 6 169-18 185-51"/></g><g fill="#285e8e" stroke="none"><circle cx="52" cy="-55" r="5"/><circle cx="105" cy="-82" r="5"/><circle cx="164" cy="-79" r="5"/><circle cx="-29" cy="66" r="5"/><circle cx="-35" cy="117" r="5"/><circle cx="-11" cy="174" r="5"/><circle cx="55" cy="24" r="5"/><circle cx="102" cy="16" r="5"/><circle cx="151" cy="-5" r="5"/></g></g><g font-family="Arial,sans-serif" fill="#68717a" font-size="13"><text x="46" y="55">detector layers</text><text x="542" y="366">candidate trajectories</text></g></svg>